# xmcd
#
# Track frame offsets:
#	150
#	14002
#	27741
#	42297
#	56257
#	69748
#	82605
#	96397
#	109622
#	123161
#	137653
#	151910
#	165157
#	178830
#	192339
#	207032
#	220977
#	235641
#	249146
#	263220
#	277489
#	292472
#	307302
#	322420
#
# Disc length: 4490 seconds
#
# Revision: 1
# Processed by: cddbd v1.5.2PL0 Copyright (c) Steve Scherf et al.
# Submitted via: EasyCDDAExtractor 9.1.3.1
#
DISCID=6a118818
DTITLE=Tom Darby and Jimmie Tarlton - Darby and Tarlton - Disc B (Atlanta 1929-30)
DYEAR=2005
DGENRE=Country
TTITLE0=Slow Wicked Blues
TTITLE1=Black Jack Moonshine
TTITLE2=Ain't Gonna Marry No More
TTITLE3=Down In The Old Cherry Orchard
TTITLE4=When The Bluebirds Nest Again
TTITLE5=Beggar Joe
TTITLE6=When You're Away From Home
TTITLE7=Birmingham Rag
TTITLE8=Sweet Sarah Blues
TTITLE9=Little Bessie
TTITLE10=I Left Her At The River
TTITLE11=Jack and May
TTITLE12=Captain Won't You Let Me Go Home
TTITLE13=Going Back To My Texas Home
TTITLE14=The Whistling Songbird
TTITLE15=Freight Train Ramble
TTITLE16=Lonesome Frisco Line
TTITLE17=Down Among The Sugar Cane
TTITLE18=The Black Sheep
TTITLE19=Little Ola
TTITLE20=Once I Had A Sweetheart
TTITLE21=The Maple On The Hill
TTITLE22=My Father Died A Drunkard
TTITLE23=Frankie Dean
EXTD=
EXTT0=
EXTT1=
EXTT2=
EXTT3=
EXTT4=
EXTT5=
EXTT6=
EXTT7=
EXTT8=
EXTT9=
EXTT10=
EXTT11=
EXTT12=
EXTT13=
EXTT14=
EXTT15=
EXTT16=
EXTT17=
EXTT18=
EXTT19=
EXTT20=
EXTT21=
EXTT22=
EXTT23=
PLAYORDER=
